<svg xmlns="http://www.w3.org/2000/svg" width="125" height="57" viewBox="0 0 125 57" fill="none">
  <rect x="1" y="1" width="123" height="55" rx="0" stroke="#E66767" stroke-width="2" fill="none"/>
  <text x="10" y="38" font-family="Roboto, sans-serif" font-size="26" font-weight="900" fill="#E66767">efood</text>
  <g transform="translate(88, 13)" fill="#E66767">
    <!-- Fork -->
    <path d="M6 2v10M6 14v16M3 2v7c0 1.5 1.3 3 3 3s3-1.5 3-3V2M3 2h0M9 2h0"/>
    <rect x="5" y="2" width="2" height="28" rx="1"/>
    <rect x="2" y="2" width="2" height="9" rx="1"/>
    <rect x="8" y="2" width="2" height="9" rx="1"/>
    <!-- Knife -->
    <path d="M20 2c0 0-4 3-4 10v1h3v17h2V13h0V2z"/>
  </g>
</svg>